<?xml version="1.0" encoding="utf-8"?>
<!-- Generator: Adobe Illustrator 21.1.0, SVG Export Plug-In . SVG Version: 6.00 Build 0)  -->
<svg version="1.1" id="Layer_1" xmlns="http://www.w3.org/2000/svg" xmlns:xlink="http://www.w3.org/1999/xlink" x="0px" y="0px"
	 viewBox="0 0 150 100" style="enable-background:new 0 0 150 100;" xml:space="preserve">
<path d="M53.6,35.3h-9.7l-8,20.4l-8.1-21l-8.1,21l-8-20.4H8l11.8,29.9l8.1-21.1l8.1,21.1l10.5-26.6H53l0,0c6.6,0,11.3,5.2,11.3,11.4
	c0,6.4-5.2,11.4-11.3,11.4c-4.5,0-8.4-2.7-10.2-6.6l-1.6,4.1c2.7,3.6,7,5.8,11.8,5.8c8.2,0,14.8-6.3,14.8-14.7
	C67.8,42.1,61.4,35.6,53.6,35.3z M132.8,50.9c3-1.1,5.1-3.4,5.1-7.5c0-5.2-2.7-8.2-11.4-8.2h-8.8l9.3,13.2h-6v15.6h3.5V51.7h3.5
	c0.4,0,0.8,0,1.2,0l8.7,12.5h4.1L132.8,50.9z M124.1,38.5h2.9c3.5,0,7.7,0.5,7.7,4.9c0,2.9-1.6,4.2-3.7,4.8L124.1,38.5z M103,35.3
	H91.2v21.5L70,34.7v29.5h3.5v-21l21.1,22.2V38.5h7.3c7.2,0,13.4,3.2,13.4,11.4c0,8.2-6.2,11-13.4,11h-1.2V44.9h-3.5v19.3h5.7
	c8.9,0,15.9-4.7,15.9-14.4C118.8,40.4,111.7,35.3,103,35.3z"/>
</svg>
